<svg width="20" height="20" viewBox="0 0 20 20" fill="none" xmlns="http://www.w3.org/2000/svg">
<path d="M15.1153 13.3582C14.8446 13.6642 14.5605 13.9665 14.2635 14.2635C9.96769 18.5593 4.58579 20.1422 2.24264 17.7991C0.63624 16.1926 0.875137 13.158 2.56841 10.0242M4.88961 6.72526C5.17132 6.40495 5.46766 6.08875 5.77818 5.77824C10.0739 1.48247 15.4558 -0.100442 17.799 2.2427C19.4065 3.85021 19.1662 6.88795 17.4697 10.024M14.2635 5.77824C18.5592 10.074 20.1421 15.4559 17.799 17.7991C15.4558 20.1422 10.0739 18.5593 5.77818 14.2635C1.48241 9.96775 -0.100503 4.58585 2.24264 2.2427C4.58579 -0.100442 9.96769 1.48247 14.2635 5.77824ZM11 9.99999C11 10.5523 10.5523 11 10 11C9.44772 11 9 10.5523 9 9.99999C9 9.44771 9.44772 8.99999 10 8.99999C10.5523 8.99999 11 9.44771 11 9.99999Z" stroke="#9896A1" stroke-width="2" stroke-linecap="round" stroke-linejoin="round"/>
</svg>
